<svg version="1.0" fill="current" xmlns="http://www.w3.org/2000/svg"
 width="2893.000000pt" height="2893.000000pt" viewBox="0 0 2893.000000 2893.000000"
 preserveAspectRatio="xMidYMid meet">

<g transform="translate(0.000000,2893.000000) scale(0.100000,-0.100000)"
fill="current" stroke="none">
<path d="M13970 28913 c-1437 -51 -2809 -301 -4140 -752 -1640 -555 -3160
-1398 -4510 -2499 -647 -529 -1300 -1168 -1855 -1817 -1692 -1979 -2823 -4398
-3254 -6960 -71 -422 -125 -857 -156 -1260 -53 -695 -59 -1467 -15 -2125 164
-2449 928 -4773 2248 -6835 889 -1389 2047 -2652 3359 -3663 2840 -2186 6348
-3229 9943 -2956 3879 294 7464 2144 9979 5149 1901 2270 3057 5076 3306 8020
26 309 34 458 46 858 22 701 -16 1492 -106 2212 -491 3894 -2550 7419 -5715
9779 -1292 964 -2763 1716 -4290 2194 -1239 388 -2439 596 -3765 652 -211 9
-865 11 -1075 3z m1200 -843 c1832 -101 3550 -538 5173 -1317 1243 -596 2369
-1364 3392 -2313 211 -196 655 -645 835 -845 2045 -2269 3256 -5086 3485
-8100 27 -356 35 -600 35 -1035 0 -534 -18 -911 -66 -1380 -279 -2751 -1395
-5354 -3199 -7460 -443 -518 -968 -1044 -1480 -1486 -2205 -1899 -4940 -3036
-7840 -3258 -675 -52 -1605 -46 -2255 14 -1730 160 -3335 617 -4870 1387
-1624 813 -3054 1932 -4261 3333 -813 945 -1525 2059 -2049 3205 -1087 2381
-1461 5006 -1084 7614 457 3166 2033 6077 4454 8228 2092 1858 4711 3028 7480
3343 345 39 747 68 1185 84 158 6 873 -3 1065 -14z"/>
<path d="M15578 18675 l-3 -2606 -1795 2575 -1795 2575 -2408 1 c-1924 0
-2407 -3 -2401 -12 4 -7 1047 -1438 2316 -3180 1270 -1742 2311 -3174 2314
-3182 3 -9 -991 -1409 -2555 -3598 l-2560 -3583 2507 -3 c1379 -1 2512 0 2517
2 6 2 877 1298 1935 2881 l1925 2877 3 -2826 2 -2826 3640 0 3640 0 0 1505 0
1505 -2030 0 -2030 0 0 5250 0 5250 -1610 0 -1610 0 -2 -2605z m-2005 -774
l1907 -2739 0 -414 0 -413 -2034 -3040 -2034 -3040 -1791 -3 -1791 -2 2354
3294 2354 3293 -2115 2894 c-1163 1592 -2117 2897 -2119 2902 -3 4 753 7 1679
7 l1683 0 1907 -2739z"/>
</g>
</svg>
